<svg id="Capa_1" data-name="Capa 1" xmlns="http://www.w3.org/2000/svg" viewBox="0 0 789.01 217.95"><defs><style>.cls-1,.cls-10{fill:#f0f;}.cls-2{fill:#8cc63f;}.cls-3{fill:#29abe2;}.cls-4{fill:#f15a24;}.cls-10,.cls-11,.cls-5{font-size:36.85px;}.cls-5{font-family:Phenomena-Bold, Phenomena;font-weight:700;}.cls-6{letter-spacing:0em;}.cls-7{letter-spacing:-0.01em;}.cls-8{letter-spacing:-0.01em;}.cls-9{fill:#d300ff;}.cls-10,.cls-11{font-family:PicoBlack;}.cls-12{fill:#bcbbbc;}.cls-13{fill:#707070;}.cls-14{fill:#4c4c4c;}.cls-15{fill:#aaa;}.cls-16{fill:none;stroke:#000;stroke-miterlimit:10;}</style></defs><title>FUNmetricsCOLOR</title><path class="cls-1" d="M418.09,98.18a6,6,0,0,1-12.09,0V62.93a6,6,0,0,1,12.09,0Z" transform="translate(-66.26 -31.11)"/><path class="cls-2" d="M430.76,100.34A6,6,0,0,1,419.48,96l11.11-28.77a6,6,0,0,1,11.28,4.36Z" transform="translate(-66.26 -31.11)"/><path class="cls-3" d="M455.45,98.14a6,6,0,0,1-12.09.07l-.1-47a6,6,0,0,1,12.09-.07Z" transform="translate(-66.26 -31.11)"/><path class="cls-4" d="M470.92,98.18a6,6,0,0,1-12.09,0V43.5a6,6,0,0,1,12.09,0Z" transform="translate(-66.26 -31.11)"/><path class="cls-1" d="M245.12,141a3.14,3.14,0,0,1-3.13,3.13h-4.27v20a3.14,3.14,0,0,1-3.14,3.13,3,3,0,0,1-2.22-.92,3,3,0,0,1-.91-2.21V134.65a9.39,9.39,0,0,1,9.36-9.37H242a3,3,0,0,1,2.21.92,3.13,3.13,0,0,1-2.21,5.34h-1.18a3,3,0,0,0-2.19.91,3,3,0,0,0-.9,2.21v3.18H242a3.16,3.16,0,0,1,3.13,3.14Z" transform="translate(-66.26 -31.11)"/><path class="cls-2" d="M265.21,157.89a9.36,9.36,0,1,1-18.72,0V142.45a3.13,3.13,0,0,1,5.34-2.21,3.05,3.05,0,0,1,.92,2.21v15.46a3.14,3.14,0,0,0,3.1,3.1,2.91,2.91,0,0,0,2.15-.91,3,3,0,0,0,.91-2.2V142.46a3.16,3.16,0,0,1,3.13-3.14,3.07,3.07,0,0,1,2.23.93,3,3,0,0,1,.94,2.21Z" transform="translate(-66.26 -31.11)"/><path class="cls-3" d="M285.7,164.14a3.14,3.14,0,0,1-6.27,0v-6.23a3,3,0,0,0-.9-2.19,3,3,0,0,0-2.16-.9,3,3,0,0,0-2.17.9,2.92,2.92,0,0,0-.92,2.19v6.23a3.14,3.14,0,0,1-6.27,0v-6.23a9.35,9.35,0,1,1,18.69,0Z" transform="translate(-66.26 -31.11)"/><text class="cls-5" transform="translate(178.43 107.06)">met<tspan class="cls-6" x="47.54" y="0">r</tspan><tspan class="cls-7" x="57.78" y="0">i</tspan><tspan class="cls-8" x="64.56" y="0">c</tspan><tspan x="78.49" y="0">s</tspan></text><path class="cls-9" d="M121.32,169.48a5.24,5.24,0,0,1-5.22,5.23H109v33.41a5.23,5.23,0,0,1-8.94,3.69,5.09,5.09,0,0,1-1.51-3.7V158.93a15.64,15.64,0,0,1,15.61-15.63h2a5.23,5.23,0,0,1,0,10.45h-2a5,5,0,0,0-3.66,1.51,5,5,0,0,0-1.5,3.68v5.32h7.13a5.24,5.24,0,0,1,5.22,5.22Z" transform="translate(-66.26 -31.11)"/><path class="cls-2" d="M154.82,197.7a15.61,15.61,0,1,1-31.22,0V172a5.23,5.23,0,0,1,10.45,0v25.78a5.13,5.13,0,0,0,8.76,3.66,5,5,0,0,0,1.5-3.67V172a5.26,5.26,0,0,1,5.23-5.24,5.17,5.17,0,0,1,3.72,1.54,5,5,0,0,1,1.56,3.7Z" transform="translate(-66.26 -31.11)"/><path class="cls-4" d="M189,208.12a5.23,5.23,0,0,1-10.45,0V197.73a5,5,0,0,0-1.5-3.65,4.91,4.91,0,0,0-3.6-1.51,5,5,0,0,0-3.63,1.51,4.92,4.92,0,0,0-1.53,3.65v10.39a5.23,5.23,0,0,1-10.45,0V197.73a15.58,15.58,0,1,1,31.16,0Z" transform="translate(-66.26 -31.11)"/><text class="cls-5" transform="translate(30.94 208.59)">met<tspan class="cls-6" x="47.54" y="0">r</tspan><tspan class="cls-7" x="57.78" y="0">i</tspan><tspan class="cls-8" x="64.56" y="0">c</tspan><tspan x="78.49" y="0">s</tspan></text><text class="cls-10" transform="translate(0 27.79)">F<tspan class="cls-2" x="14.7" y="0">U</tspan><tspan class="cls-3" x="35.27" y="0">N</tspan></text><path d="M122.62,69V81.34a.45.45,0,0,1-.47.51H120a.47.47,0,0,1-.52-.51V68.92c0-1.73-.84-2.87-2.39-2.87s-2.43,1.14-2.43,2.87V81.34a.46.46,0,0,1-.48.51h-2.14a.47.47,0,0,1-.52-.51V68.92c0-1.73-.85-2.87-2.39-2.87s-2.43,1.14-2.43,2.87V81.34a.47.47,0,0,1-.52.51h-2.1a.47.47,0,0,1-.52-.51V69c0-3.5,2.21-6,5.57-6a4.75,4.75,0,0,1,4,2.25,4.69,4.69,0,0,1,4-2.25C120.45,63,122.62,65.53,122.62,69Z" transform="translate(-66.26 -31.11)"/><path d="M125.79,76.22V61.35a5.88,5.88,0,1,1,11.76-.11c0,3.24-2.36,5.56-5.86,5.56H129v9.56a2.66,2.66,0,1,0,5.31.15.48.48,0,0,1,.52-.48H137a.45.45,0,0,1,.48.48,5.65,5.65,0,0,1-5.82,5.71C128.15,82.22,125.79,79.83,125.79,76.22Zm5.9-12.29a2.48,2.48,0,0,0,2.69-2.62,2.62,2.62,0,0,0-2.73-2.91c-1.73,0-2.69,1.14-2.69,2.91v2.62Z" transform="translate(-66.26 -31.11)"/><path d="M148.64,79.46v2c0,.29-.18.47-.52.47h-.55c-3.65,0-5.82-2.46-5.82-6.52l.22-20h-2.06a.44.44,0,0,1-.48-.47V53a.44.44,0,0,1,.48-.48H142V47.79a.47.47,0,0,1,.52-.52h2.13a.45.45,0,0,1,.48.52v4.75h2.84a.44.44,0,0,1,.48.48v1.92a.44.44,0,0,1-.48.47H145.1l-.22,20.07c0,2.32,1,3.5,2.84,3.5h.4A.45.45,0,0,1,148.64,79.46Z" transform="translate(-66.26 -31.11)"/><path d="M151.11,81.34V69.8c0-4,2.58-6.44,6.3-6.44h1.36a.45.45,0,0,1,.48.51v2a.44.44,0,0,1-.48.48h-1.32a3,3,0,0,0-3.17,3.21V81.34a.47.47,0,0,1-.52.51h-2.13A.46.46,0,0,1,151.11,81.34Z" transform="translate(-66.26 -31.11)"/><path d="M161.35,57a1.83,1.83,0,0,1,1.88-1.92A1.88,1.88,0,0,1,165.15,57a1.93,1.93,0,0,1-1.92,1.88A1.82,1.82,0,0,1,161.35,57Zm.3,24.32V61.7a.45.45,0,0,1,.51-.48h2.14a.46.46,0,0,1,.52.48V81.34a.47.47,0,0,1-.52.51h-2.14A.46.46,0,0,1,161.65,81.34Z" transform="translate(-66.26 -31.11)"/><path d="M167.84,76.25l.07-23c0-3.5,2.32-6,5.79-6,3.31,0,5.52,2.29,5.75,5.64,0,.29-.15.48-.48.48h-2.18a.47.47,0,0,1-.51-.48c-.15-1.66-1.07-2.62-2.58-2.62a2.57,2.57,0,0,0-2.62,2.88L171,76.36a2.58,2.58,0,0,0,2.65,2.88c1.55,0,2.54-1.07,2.69-2.88,0-.36.19-.51.48-.51H179c.3,0,.48.18.48.55-.22,3.46-2.47,5.86-5.82,5.86A5.67,5.67,0,0,1,167.84,76.25Z" transform="translate(-66.26 -31.11)"/><path d="M181.51,76.4c0-.29.11-.55.52-.55h2.13a.47.47,0,0,1,.52.48c.15,1.88,1,2.91,2.95,2.91,1.69,0,2.58-1,2.58-2.29,0-3.72-8.48-2.72-8.48-8.77,0-2.94,2.25-5.16,5.57-5.16,3.94,0,5.67,2.55,5.78,5.42a.46.46,0,0,1-.48.52h-2.17a.5.5,0,0,1-.52-.48A2.41,2.41,0,0,0,187.37,66a2.27,2.27,0,0,0-2.51,2.25c0,3.53,8.52,2.54,8.52,8.73,0,3-2.29,5.27-5.71,5.27A5.82,5.82,0,0,1,181.51,76.4Z" transform="translate(-66.26 -31.11)"/><text class="cls-5" transform="translate(377.01 93.62)">met<tspan class="cls-6" x="47.54" y="0">r</tspan><tspan class="cls-7" x="57.78" y="0">i</tspan><tspan class="cls-8" x="64.56" y="0">c</tspan><tspan x="78.49" y="0">s</tspan></text><text class="cls-11" transform="translate(320.36 94.25)">FUN</text><path class="cls-1" d="M738.43,169.66a6,6,0,0,1-12.09,0V134.42a6,6,0,0,1,12.09,0Z" transform="translate(-66.26 -31.11)"/><path class="cls-2" d="M751.1,171.83a6,6,0,0,1-11.28-4.36l11.11-28.77a6,6,0,0,1,11.28,4.36Z" transform="translate(-66.26 -31.11)"/><path class="cls-3" d="M775.79,169.63a6,6,0,0,1-12.09.07l-.1-47a6,6,0,0,1,12.09-.07Z" transform="translate(-66.26 -31.11)"/><path class="cls-4" d="M791.26,169.66a6,6,0,0,1-12.09,0V115a6,6,0,0,1,12.09,0Z" transform="translate(-66.26 -31.11)"/><path d="M784.51,183.55v12.3a.45.45,0,0,1-.48.52H781.9a.47.47,0,0,1-.52-.52V183.44c0-1.74-.85-2.88-2.39-2.88s-2.44,1.14-2.44,2.88v12.41a.45.45,0,0,1-.48.52h-2.13a.47.47,0,0,1-.52-.52V183.44c0-1.74-.85-2.88-2.39-2.88s-2.44,1.14-2.44,2.88v12.41a.46.46,0,0,1-.51.52H766a.47.47,0,0,1-.52-.52v-12.3c0-3.5,2.21-6,5.57-6a4.73,4.73,0,0,1,4,2.25,4.65,4.65,0,0,1,4-2.25C782.34,177.54,784.51,180.05,784.51,183.55Z" transform="translate(-66.26 -31.11)"/><path d="M787.68,190.73v-7.22a5.88,5.88,0,0,1,11.76-.11c0,3.24-2.36,5.56-5.86,5.56h-2.73v1.92a2.66,2.66,0,1,0,5.31.15.47.47,0,0,1,.51-.48h2.18a.45.45,0,0,1,.48.48,5.66,5.66,0,0,1-5.82,5.71C790,196.74,787.68,194.34,787.68,190.73Zm5.9-4.64a2.48,2.48,0,0,0,2.69-2.62,2.62,2.62,0,0,0-2.73-2.91c-1.73,0-2.69,1.14-2.69,2.91v2.62Z" transform="translate(-66.26 -31.11)"/><path d="M810.53,194v2a.45.45,0,0,1-.52.48h-.55c-3.65,0-5.82-2.47-5.82-6.52v-9.14h-2.07a.44.44,0,0,1-.47-.48v-1.92a.44.44,0,0,1,.47-.47h2.07v-4.76a.46.46,0,0,1,.51-.51h2.14a.45.45,0,0,1,.48.51V178h2.84a.44.44,0,0,1,.48.47v1.92a.45.45,0,0,1-.48.48h-2.84V190c0,2.32,1,3.5,2.84,3.5h.4A.45.45,0,0,1,810.53,194Z" transform="translate(-66.26 -31.11)"/><path d="M813,195.85V184.32c0-4,2.58-6.45,6.3-6.45h1.36a.46.46,0,0,1,.48.52v2a.45.45,0,0,1-.48.48h-1.32a3,3,0,0,0-3.17,3.2v11.79a.47.47,0,0,1-.52.52h-2.14A.46.46,0,0,1,813,195.85Z" transform="translate(-66.26 -31.11)"/><path d="M823.24,173.74a1.83,1.83,0,0,1,1.88-1.91,1.88,1.88,0,0,1,1.92,1.91,1.92,1.92,0,0,1-1.92,1.88A1.82,1.82,0,0,1,823.24,173.74Zm.3,22.11V178.42a.45.45,0,0,1,.51-.47h2.14a.46.46,0,0,1,.52.47v17.43a.47.47,0,0,1-.52.52h-2.14A.46.46,0,0,1,823.54,195.85Z" transform="translate(-66.26 -31.11)"/><path d="M829.73,190.77v-7.22c0-3.5,2.32-6,5.78-6s5.53,2.29,5.75,5.64c0,.29-.14.48-.48.48h-2.17a.48.48,0,0,1-.52-.48,2.5,2.5,0,0,0-2.58-2.62,2.57,2.57,0,0,0-2.61,2.88v7.44a2.57,2.57,0,0,0,2.65,2.87c1.55,0,2.54-1.06,2.69-2.87,0-.37.19-.52.48-.52h2.21c.3,0,.48.19.48.56-.22,3.46-2.47,5.86-5.82,5.86A5.67,5.67,0,0,1,829.73,190.77Z" transform="translate(-66.26 -31.11)"/><path d="M843.4,190.92c0-.3.11-.56.52-.56h2.13a.47.47,0,0,1,.52.48c.15,1.88,1,2.91,2.95,2.91,1.69,0,2.58-.95,2.58-2.28,0-3.72-8.48-2.73-8.48-8.77,0-2.95,2.25-5.16,5.57-5.16,3.94,0,5.67,2.54,5.78,5.42a.45.45,0,0,1-.48.51h-2.17a.5.5,0,0,1-.52-.48,2.43,2.43,0,0,0-2.54-2.47,2.27,2.27,0,0,0-2.51,2.25c0,3.54,8.52,2.55,8.52,8.74,0,3-2.29,5.27-5.72,5.27A5.81,5.81,0,0,1,843.4,190.92Z" transform="translate(-66.26 -31.11)"/><path d="M721.34,187.67a3.16,3.16,0,0,1-3.13,3.14h-4.28v3.06a3.14,3.14,0,0,1-5.36,2.21,3.08,3.08,0,0,1-.9-2.22V181.35A9.37,9.37,0,0,1,717,172h1.18a3,3,0,0,1,2.21.92,3.13,3.13,0,0,1-2.21,5.34H717a3.11,3.11,0,0,0-3.1,3.11v3.19h4.28a3.14,3.14,0,0,1,3.13,3.13Z" transform="translate(-66.26 -31.11)"/><path d="M741.42,187.62a9.36,9.36,0,0,1-18.72,0v-6.23a3.14,3.14,0,0,1,6.27,0v6.23a3,3,0,0,0,.92,2.17,3,3,0,0,0,4.33,0,3,3,0,0,0,.9-2.2v-6.21a3.06,3.06,0,0,1,.92-2.22,3,3,0,0,1,2.21-.92,3,3,0,0,1,2.23.92,3,3,0,0,1,.94,2.22Z" transform="translate(-66.26 -31.11)"/><path d="M761.91,193.87a3.13,3.13,0,0,1-6.26,0v-6.23a3,3,0,0,0-.91-2.2,2.94,2.94,0,0,0-2.15-.9,3.11,3.11,0,0,0-3.1,3.1v6.23a3.13,3.13,0,0,1-5.34,2.21,3,3,0,0,1-.92-2.21v-6.23a9.34,9.34,0,1,1,18.68,0Z" transform="translate(-66.26 -31.11)"/><path class="cls-12" d="M420,201.7a6,6,0,0,1-12.09,0V166.45a6,6,0,0,1,12.09,0Z" transform="translate(-66.26 -31.11)"/><path class="cls-13" d="M432.67,203.86a6,6,0,0,1-11.28-4.36l11.11-28.77a6,6,0,0,1,11.28,4.36Z" transform="translate(-66.26 -31.11)"/><path class="cls-14" d="M457.36,201.66a6,6,0,0,1-12.09.07l-.1-47a6,6,0,0,1,12.09-.07Z" transform="translate(-66.26 -31.11)"/><path class="cls-15" d="M472.83,201.7a6,6,0,0,1-12.09,0V147a6,6,0,0,1,12.09,0Z" transform="translate(-66.26 -31.11)"/><text class="cls-5" transform="translate(378.92 197.14)">met<tspan class="cls-6" x="47.54" y="0">r</tspan><tspan class="cls-7" x="57.78" y="0">i</tspan><tspan class="cls-8" x="64.56" y="0">c</tspan><tspan x="78.49" y="0">s</tspan></text><text class="cls-11" transform="translate(322.26 197.77)">FUN</text><path class="cls-16" d="M248.32,229.44H233.1a10.34,10.34,0,0,1-10.3-10.3V117.29A10.33,10.33,0,0,1,233.1,107H335a10.33,10.33,0,0,1,10.3,10.3V219.14a10.34,10.34,0,0,1-10.3,10.3h-3.61" transform="translate(-66.26 -31.11)"/><path class="cls-16" d="M253.5,208.57v15.68a5.21,5.21,0,0,1-5.18,5.19" transform="translate(-66.26 -31.11)"/><path class="cls-16" d="M263.88,224.25V208.57a5.19,5.19,0,0,0-10.38,0v15.68" transform="translate(-66.26 -31.11)"/><path class="cls-16" d="M275.35,190.12l-1.08,34.13a5.2,5.2,0,0,1-10.39,0V208.57" transform="translate(-66.26 -31.11)"/><path class="cls-16" d="M284.64,224.25l1.08-34.13a5.19,5.19,0,0,0-10.37,0l-1.08,34.13" transform="translate(-66.26 -31.11)"/><path class="cls-16" d="M295,199.16v25.09a5.19,5.19,0,0,1-10.38,0l1.08-34.13" transform="translate(-66.26 -31.11)"/><path class="cls-16" d="M295,224.25V199.16a5.19,5.19,0,0,1,10.38,0v25.09" transform="translate(-66.26 -31.11)"/><path class="cls-16" d="M315.78,171.93v52.32a5.22,5.22,0,0,1-5.19,5.19,5.06,5.06,0,0,1-3.67-1.53,5,5,0,0,1-1.52-3.66V199.16" transform="translate(-66.26 -31.11)"/><path class="cls-16" d="M315.78,224.25V171.93a5.19,5.19,0,0,1,10.38,0v52.32" transform="translate(-66.26 -31.11)"/><path class="cls-16" d="M331.34,229.44a5.21,5.21,0,0,1-5.18-5.19V171.93" transform="translate(-66.26 -31.11)"/></svg>